<svg width="5" height="10" viewBox="0 0 5 10" fill="none" xmlns="http://www.w3.org/2000/svg">
<g style="mix-blend-mode:luminosity">
<path d="M0.581055 9.33105C0.742188 9.33105 0.874023 9.27246 0.986328 9.16504L4.78516 5.4541C4.91699 5.31738 4.98535 5.17578 4.98535 5C4.98535 4.8291 4.92188 4.67773 4.78516 4.55078L0.986328 0.834961C0.874023 0.727539 0.742188 0.668945 0.581055 0.668945C0.253906 0.668945 0 0.922852 0 1.24512C0 1.40137 0.0683594 1.55273 0.175781 1.66504L3.59863 5.00488L0.175781 8.33496C0.0634766 8.45215 0 8.59375 0 8.75488C0 9.07715 0.253906 9.33105 0.581055 9.33105Z" fill="#797979"/>
</g>
</svg>
